<?xml version="1.0" encoding="utf-8"?>
<!-- Generator: Adobe Illustrator 22.1.0, SVG Export Plug-In . SVG Version: 6.00 Build 0)  -->
<svg version="1.1" id="Layer_1" xmlns="http://www.w3.org/2000/svg" xmlns:xlink="http://www.w3.org/1999/xlink" x="0px" y="0px"
	 viewBox="0 0 2000 2000" style="enable-background:new 0 0 2000 2000;" xml:space="preserve">
<g>
	<g>
		<polygon points="631.4,983.6 648.2,983.6 648.2,1026.3 660.4,1026.3 660.4,983.6 677.3,983.6 677.3,973.7 631.4,973.7 		"/>
		<path d="M718.7,1009.4c3.5-1.5,6.1-3.7,8-6.5c1.9-2.8,2.8-6.2,2.8-10.1c0-3.9-0.9-7.3-2.8-10.2c-1.9-2.9-4.5-5.1-7.9-6.6
			c-3.4-1.6-7.5-2.3-12.2-2.3h-22.8v52.7H696v-14.7h11.2l10.2,14.7h13.1L718.7,1009.4z M714.3,999.5c-1.9,1.6-4.7,2.4-8.4,2.4H696
			v-18.4h9.9c3.7,0,6.4,0.8,8.4,2.4c1.9,1.6,2.9,3.9,2.9,6.8C717.2,995.7,716.2,997.9,714.3,999.5z"/>
		<rect x="739.1" y="973.7" width="12.2" height="52.7"/>
		<path d="M806.7,982.6c-1.9-2.9-4.5-5.1-7.9-6.6c-3.4-1.6-7.5-2.3-12.1-2.3h-22.8v52.7H776v-14.5h10.6c4.7,0,8.7-0.8,12.1-2.3
			c3.4-1.5,6.1-3.7,7.9-6.6c1.9-2.9,2.8-6.3,2.8-10.1C809.5,988.9,808.6,985.5,806.7,982.6z M794.3,999.5c-1.9,1.6-4.7,2.4-8.4,2.4
			H776v-18.3h9.9c3.7,0,6.4,0.8,8.4,2.4c1.9,1.6,2.9,3.9,2.9,6.8C797.2,995.7,796.2,997.9,794.3,999.5z"/>
		<polygon points="830.4,973.7 818.2,973.7 818.2,1026.3 856.8,1026.3 856.8,1016.4 830.4,1016.4 		"/>
		<polygon points="875.7,1004.4 900.2,1004.4 900.2,994.9 875.7,994.9 875.7,983.4 903.4,983.4 903.4,973.7 863.6,973.7 
			863.6,1026.3 904.4,1026.3 904.4,1016.6 875.7,1016.6 		"/>
		<path d="M952.6,985.3c2.6-1.4,5.5-2.1,8.7-2.1c5.3,0,9.7,2.1,13.2,6.2l7.8-7.2c-2.5-3-5.6-5.3-9.3-6.9c-3.7-1.6-7.8-2.4-12.4-2.4
			c-5.4,0-10.3,1.2-14.6,3.5c-4.3,2.3-7.8,5.6-10.2,9.7c-2.5,4.1-3.7,8.8-3.7,14c0,5.2,1.2,9.9,3.7,14c2.5,4.1,5.9,7.4,10.2,9.7
			c4.3,2.3,9.2,3.5,14.6,3.5c4.6,0,8.7-0.8,12.4-2.4c3.7-1.6,6.8-3.9,9.3-7l-7.8-7.2c-3.6,4.2-8,6.2-13.2,6.2
			c-3.3,0-6.2-0.7-8.7-2.1c-2.6-1.4-4.6-3.4-6-6c-1.4-2.6-2.1-5.5-2.1-8.7s0.7-6.2,2.1-8.7C948,988.7,950,986.7,952.6,985.3z"/>
		<path d="M1040,986c-2.5-4.1-5.9-7.4-10.3-9.8c-4.4-2.4-9.3-3.5-14.8-3.5s-10.4,1.2-14.8,3.5c-4.4,2.4-7.8,5.6-10.3,9.8
			c-2.5,4.1-3.7,8.8-3.7,14s1.2,9.8,3.7,14c2.5,4.1,5.9,7.4,10.3,9.8c4.4,2.4,9.3,3.5,14.8,3.5s10.4-1.2,14.8-3.5
			c4.4-2.4,7.8-5.6,10.3-9.8c2.5-4.1,3.8-8.8,3.8-14S1042.5,990.2,1040,986z M1029.3,1008.7c-1.4,2.6-3.4,4.6-5.9,6
			c-2.5,1.4-5.3,2.1-8.4,2.1s-5.9-0.7-8.4-2.1c-2.5-1.4-4.5-3.4-5.9-6c-1.4-2.6-2.1-5.5-2.1-8.7c0-3.3,0.7-6.2,2.1-8.7
			c1.4-2.6,3.4-4.6,5.9-6c2.5-1.4,5.3-2.1,8.4-2.1s5.9,0.7,8.4,2.1c2.5,1.4,4.5,3.4,5.9,6c1.4,2.6,2.1,5.5,2.1,8.7
			C1031.5,1003.3,1030.7,1006.2,1029.3,1008.7z"/>
		<polygon points="1089.3,1005.6 1063.1,973.7 1053,973.7 1053,1026.3 1065,1026.3 1065,994.4 1091.3,1026.3 1101.3,1026.3 
			1101.3,973.7 1089.3,973.7 		"/>
		<polygon points="1113.8,1026.3 1126,1026.3 1126,1007.2 1150.4,1007.2 1150.4,997.4 1126,997.4 1126,983.4 1153.6,983.4 
			1153.6,973.7 1113.8,973.7 		"/>
		<rect x="1161.9" y="973.7" width="12.2" height="52.7"/>
		<path d="M1221.4,1009.4c3.5-1.5,6.1-3.7,8-6.5c1.9-2.8,2.8-6.2,2.8-10.1c0-3.9-0.9-7.3-2.8-10.2c-1.9-2.9-4.5-5.1-7.9-6.6
			c-3.4-1.6-7.5-2.3-12.2-2.3h-22.8v52.7h12.2v-14.7h11.2l10.2,14.7h13.1L1221.4,1009.4z M1217,999.5c-1.9,1.6-4.7,2.4-8.3,2.4h-9.9
			v-18.4h9.9c3.7,0,6.4,0.8,8.3,2.4c1.9,1.6,2.9,3.9,2.9,6.8C1219.9,995.7,1219,997.9,1217,999.5z"/>
		<polygon points="1291.1,973.7 1271.7,1006.4 1252,973.7 1241.9,973.7 1241.9,1026.3 1253.3,1026.3 1253.3,995.4 1268.8,1020.8 
			1274.2,1020.8 1289.8,994.7 1289.8,1026.3 1301.3,1026.3 1301.1,973.7 		"/>
		<polygon points="1325.9,1004.4 1350.3,1004.4 1350.3,994.9 1325.9,994.9 1325.9,983.4 1353.6,983.4 1353.6,973.7 1313.8,973.7 
			1313.8,1026.3 1354.6,1026.3 1354.6,1016.6 1325.9,1016.6 		"/>
		<path d="M1413.6,986.2c-2.4-4-5.8-7-10.2-9.2c-4.4-2.2-9.4-3.3-15.2-3.3h-23.9v52.7h23.9c5.7,0,10.8-1.1,15.2-3.3
			c4.4-2.2,7.8-5.3,10.2-9.2c2.4-4,3.7-8.6,3.7-13.9C1417.2,994.7,1416,990.1,1413.6,986.2z M1400.2,1011.9
			c-3.1,2.9-7.3,4.4-12.6,4.4h-11.1v-32.7h11.1c5.3,0,9.5,1.5,12.6,4.4c3.1,2.9,4.7,6.9,4.7,11.9
			C1404.9,1005,1403.3,1009,1400.2,1011.9z"/>
		<path d="M1465,985.2c2.6-1.4,5.6-2.1,9-2.1c5.3,0,9.9,2,13.6,5.9l7.8-7.2c-2.6-3-5.7-5.2-9.5-6.8c-3.8-1.6-8-2.3-12.6-2.3
			c-5.5,0-10.5,1.2-14.9,3.5c-4.4,2.3-7.9,5.6-10.3,9.7c-2.5,4.1-3.7,8.8-3.7,14c0,5.2,1.2,9.9,3.7,14c2.5,4.1,5.9,7.4,10.3,9.7
			c4.4,2.3,9.3,3.5,14.8,3.5c3.8,0,7.6-0.6,11.4-1.7c3.8-1.2,7.1-2.8,9.9-5v-21.4h-11.1v15.4c-2.8,1.5-6,2.3-9.5,2.3
			c-3.3,0-6.3-0.7-8.8-2.1c-2.6-1.4-4.6-3.4-6.1-6c-1.5-2.6-2.2-5.5-2.2-8.7c0-3.3,0.7-6.2,2.2-8.8
			C1460.4,988.6,1462.4,986.7,1465,985.2z"/>
		<path d="M1534.3,973.7h-12l-23.5,52.7h12.5l4.7-11.3h24.5l4.7,11.3h12.8L1534.3,973.7z M1519.9,1005.8l8.4-20.2l8.4,20.2H1519.9z"
			/>
		<polygon points="1612.6,973.7 1593.2,1006.4 1573.5,973.7 1563.4,973.7 1563.4,1026.3 1574.8,1026.3 1574.8,995.4 1590.3,1020.8 
			1595.8,1020.8 1611.3,994.7 1611.3,1026.3 1622.8,1026.3 1622.6,973.7 		"/>
		<polygon points="1647.4,1004.4 1671.8,1004.4 1671.8,994.9 1647.4,994.9 1647.4,983.4 1675.1,983.4 1675.1,973.7 1635.3,973.7 
			1635.3,1026.3 1676.1,1026.3 1676.1,1016.6 1647.4,1016.6 		"/>
		<path d="M1722.7,1002.6c-1.8-2.1-4-3.6-6.6-4.5c-2.6-1-5.8-1.9-9.9-2.9c-3.9-0.9-6.7-1.7-8.6-2.6c-1.9-0.9-2.8-2.2-2.8-4
			c0-1.8,0.8-3.3,2.4-4.4c1.6-1.1,4.2-1.7,7.6-1.7c4.9,0,9.7,1.4,14.6,4.1l3.8-9.3c-2.4-1.5-5.2-2.7-8.4-3.5
			c-3.2-0.8-6.5-1.2-9.9-1.2c-4.8,0-8.9,0.7-12.2,2.2c-3.3,1.5-5.8,3.4-7.5,5.9c-1.7,2.5-2.5,5.3-2.5,8.3c0,3.5,0.9,6.3,2.7,8.4
			c1.8,2.1,4,3.6,6.6,4.6c2.6,1,5.8,1.9,9.9,2.9c2.6,0.6,4.7,1.2,6.2,1.7c1.5,0.5,2.8,1.2,3.8,2c1,0.8,1.5,1.9,1.5,3.1
			c0,1.7-0.8,3.1-2.5,4.1c-1.7,1-4.2,1.5-7.7,1.5c-3.1,0-6.2-0.5-9.3-1.5c-3.1-1-5.8-2.3-8.1-4l-4.1,9.2c2.4,1.8,5.5,3.3,9.4,4.4
			c3.9,1.1,7.9,1.7,12.1,1.7c4.8,0,8.9-0.7,12.3-2.2c3.4-1.5,5.9-3.4,7.6-5.9c1.7-2.5,2.5-5.2,2.5-8.2
			C1725.4,1007.4,1724.5,1004.6,1722.7,1002.6z"/>
	</g>
	<g>
		<path d="M346.2,1050.7V949c0-8.8,2.3-17.1,6.9-24.7c4.3-7.2,10-13,17.1-17.4h-95.6v34.7h45.8v151.5h34.7v-14.5c-0.7-1-1.4-2-2-3.1
			C348.5,1067.8,346.2,1059.5,346.2,1050.7z"/>
		<path d="M359.4,928.1c-3.9,6.5-5.8,13.5-5.8,20.9v101.7c0,7.4,1.9,14.4,5.8,20.9c3.9,6.5,9.1,11.7,15.6,15.6
			c6.5,3.9,13.4,5.8,20.7,5.8h44c7.4,0,14.4-1.9,20.9-5.7c6.5-3.8,11.7-9,15.6-15.5c3.9-6.5,5.8-13.5,5.8-20.9v-34.4h-34.7v30.5
			c-0.2,3.3-1.3,6-3.4,8.1c-2.1,2.2-4.7,3.3-7.8,3.3h-36.8c-0.3,0-0.9,0-1.7,0c-8.4,0-15-7.3-14-15.6c1.7-15.6,4.2-37.9,4.3-42.6
			c0.5-13.1,3-25.6,9.7-37c4.3-7.3,10.4-13.8,17.6-18.2c6.9-4.2,13.3-3.4,20.9-3.4c3.3,0,5.9,1,8,3.1c2.1,2.1,3.1,4.9,3.1,8.3v28.6
			h34.7v-32.3c0-7.4-1.9-14.4-5.8-20.9c-3.9-6.5-9.1-11.7-15.6-15.6c-6.5-3.9-13.4-5.8-20.7-5.8h-44.4c-7.1,0-14,1.9-20.5,5.7
			C368.5,916.4,363.3,921.6,359.4,928.1z"/>
		<path d="M530.3,973.5l-0.2-0.6C530.2,973.1,530.2,973.3,530.3,973.5z"/>
		<path d="M576.5,1050.7v-59.8H519v29.3h22.8l2.6,22.5c1,8.4-5.6,15.7-14,15.7l0,0h-36.3c-1.9,0-3.6-0.4-5.1-1.2
			c-0.8,6.5-3,12.7-6.5,18.4c-2.9,4.9-6.6,9.2-10.8,12.9c5.8,3,12,4.6,18.5,4.6h44c7.1,0,14-1.9,20.6-5.7
			c6.6-3.8,11.9-8.9,15.8-15.4C574.6,1065.6,576.5,1058.5,576.5,1050.7z"/>
		<polygon points="431.1,1026.2 431.1,1006.5 450.8,1006.5 450.8,997.6 431.1,997.6 431.1,977.9 422.2,977.9 422.2,997.6 
			402.4,997.6 402.4,1006.5 422.2,1006.5 422.2,1026.2 		"/>
		<circle cx="490.6" cy="988.2" r="6.3"/>
		<circle cx="490.6" cy="1015.9" r="6.3"/>
		<circle cx="504.5" cy="1002.1" r="6.3"/>
		<ellipse transform="matrix(0.9239 -0.3827 0.3827 0.9239 -347.1779 258.7247)" cx="476.8" cy="1002.1" rx="6.3" ry="6.3"/>
		<path d="M530.1,973.5c-2.5-9.7-4.8-21.3-14.1-27.1c-7.7-4.8-18.6-7.8-27-3.7c-0.9-6.4-3-12.4-6.4-18.2c-3-5-6.7-9.4-11-13
			c5.8-3.1,12-4.6,18.4-4.6h44.2c7.4,0,14.4,1.9,20.8,5.8c6.4,3.9,11.6,9,15.6,15.5c4,6.4,5.9,13.5,5.9,21.1v24.2"/>
	</g>
</g>
</svg>
